<?xml version="1.0" encoding="UTF-8" standalone="no"?>
<svg
   xmlns:dc="http://purl.org/dc/elements/1.1/"
   xmlns:cc="http://creativecommons.org/ns#"
   xmlns:rdf="http://www.w3.org/1999/02/22-rdf-syntax-ns#"
   xmlns:svg="http://www.w3.org/2000/svg"
   xmlns="http://www.w3.org/2000/svg"
   xmlns:sodipodi="http://sodipodi.sourceforge.net/DTD/sodipodi-0.dtd"
   xmlns:inkscape="http://www.inkscape.org/namespaces/inkscape"
   version="1.1"
   id="Layer_2"
   x="0px"
   y="0px"
   width="100px"
   height="100px"
   viewBox="5.0 -10.0 100.0 135.0"
   enable-background="new 0 0 100 100"
   xml:space="preserve"
   inkscape:version="0.48.5 r10040"
   sodipodi:docname="2011_icon.svg"><metadata
   id="metadata27"><rdf:RDF><cc:Work
       rdf:about=""><dc:format>image/svg+xml</dc:format><dc:type
         rdf:resource="http://purl.org/dc/dcmitype/StillImage" /><dc:title /></cc:Work></rdf:RDF></metadata><defs
   id="defs25" /><sodipodi:namedview
   pagecolor="#ffffff"
   bordercolor="#666666"
   borderopacity="1"
   objecttolerance="10"
   gridtolerance="10"
   guidetolerance="10"
   inkscape:pageopacity="0"
   inkscape:pageshadow="2"
   inkscape:window-width="1600"
   inkscape:window-height="838"
   id="namedview23"
   showgrid="false"
   inkscape:zoom="2.36"
   inkscape:cx="50"
   inkscape:cy="50"
   inkscape:window-x="-8"
   inkscape:window-y="-8"
   inkscape:window-maximized="1"
   inkscape:current-layer="Layer_2" />
<g
   id="g3"
   style="fill:#4c4b4c;fill-opacity:1"
   transform="matrix(1.9503144,0,0,2.220339,-41.509362,-86.758475)">
	<path
   d="m 29,79 c 0,1.1 0.9,2 2,2 h 4 v 11 c 0,1.657 1.343,3 3,3 1.657,0 3,-1.343 3,-3 V 81 h 6 v 11 c 0,1.657 1.343,3 3,3 1.657,0 3,-1.343 3,-3 V 81 h 6 v 11 c 0,1.657 1.343,3 3,3 1.657,0 3,-1.343 3,-3 V 81 h 4 c 1.1,0 2,-0.9 2,-2 V 76 H 29 v 3 z"
   id="path5"
   style="fill:#4c4b4c;fill-opacity:1"
   inkscape:connector-curvature="0" />
	<circle
   cx="67"
   cy="40"
   r="1.5"
   id="circle7"
   style="fill:#4c4b4c;fill-opacity:1"
   d="m 68.5,40 c 0,0.828427 -0.671573,1.5 -1.5,1.5 -0.828427,0 -1.5,-0.671573 -1.5,-1.5 0,-0.828427 0.671573,-1.5 1.5,-1.5 0.828427,0 1.5,0.671573 1.5,1.5 z"
   sodipodi:cx="67"
   sodipodi:cy="40"
   sodipodi:rx="1.5"
   sodipodi:ry="1.5" />
	<circle
   cx="33"
   cy="40"
   r="1.5"
   id="circle9"
   style="fill:#4c4b4c;fill-opacity:1"
   d="m 34.5,40 c 0,0.828427 -0.671573,1.5 -1.5,1.5 -0.828427,0 -1.5,-0.671573 -1.5,-1.5 0,-0.828427 0.671573,-1.5 1.5,-1.5 0.828427,0 1.5,0.671573 1.5,1.5 z"
   sodipodi:cx="33"
   sodipodi:cy="40"
   sodipodi:rx="1.5"
   sodipodi:ry="1.5" />
	<path
   d="M 67,35 H 33 c -2.761,0 -5,2.239 -5,5 0,2.761 2.239,5 5,5 H 33.167 35 v 5 h 30 v -5 h 1.833 C 69.595,45 72,42.761 72,40 72,37.239 69.761,35 67,35 z m -34,8 c -1.654,0 -3,-1.346 -3,-3 0,-1.654 1.346,-3 3,-3 1.654,0 3,1.346 3,3 0,1.654 -1.346,3 -3,3 z m 34,0 c -1.654,0 -3,-1.346 -3,-3 0,-1.654 1.346,-3 3,-3 1.654,0 3,1.346 3,3 0,1.654 -1.346,3 -3,3 z"
   id="path11"
   style="fill:#4c4b4c;fill-opacity:1"
   inkscape:connector-curvature="0" />
	<polygon
   points="19,60 22,63 19,66 27,66 27,60 "
   id="polygon13"
   style="fill:#4c4b4c;fill-opacity:1" />
	<polygon
   points="78,63 81,60 73,60 73,66 81,66 "
   id="polygon15"
   style="fill:#4c4b4c;fill-opacity:1" />
	<path
   d="M 69,52 H 31 c -1.1,0 -2,0.9 -2,2 V 74 H 71 V 54 c 0,-1.1 -0.9,-2 -2,-2 z M 40,66.5 C 40,67.328 39.328,68 38.5,68 37.672,68 37,67.328 37,66.5 v -7 c 0,-0.828 0.672,-1.5 1.5,-1.5 0.828,0 1.5,0.672 1.5,1.5 v 7 z m 5.75,0 c 0,0.828 -0.672,1.5 -1.5,1.5 -0.828,0 -1.5,-0.672 -1.5,-1.5 v -7 c 0,-0.828 0.672,-1.5 1.5,-1.5 0.828,0 1.5,0.672 1.5,1.5 v 7 z m 5.75,0 c 0,0.828 -0.672,1.5 -1.5,1.5 -0.828,0 -1.5,-0.672 -1.5,-1.5 v -7 c 0,-0.828 0.672,-1.5 1.5,-1.5 0.828,0 1.5,0.672 1.5,1.5 v 7 z m 5.75,0 c 0,0.828 -0.672,1.5 -1.5,1.5 -0.828,0 -1.5,-0.672 -1.5,-1.5 v -7 c 0,-0.828 0.672,-1.5 1.5,-1.5 0.828,0 1.5,0.672 1.5,1.5 v 7 z m 5.75,0 C 63,67.328 62.328,68 61.5,68 60.672,68 60,67.328 60,66.5 v -7 c 0,-0.828 0.672,-1.5 1.5,-1.5 0.828,0 1.5,0.672 1.5,1.5 v 7 z"
   id="path17"
   style="fill:#4c4b4c;fill-opacity:1"
   inkscape:connector-curvature="0" />
</g>
</svg>