<?xml version="1.0" encoding="UTF-8" standalone="no"?>
<svg
   xmlns:dc="http://purl.org/dc/elements/1.1/"
   xmlns:cc="http://creativecommons.org/ns#"
   xmlns:rdf="http://www.w3.org/1999/02/22-rdf-syntax-ns#"
   xmlns:svg="http://www.w3.org/2000/svg"
   xmlns="http://www.w3.org/2000/svg"
   xmlns:sodipodi="http://sodipodi.sourceforge.net/DTD/sodipodi-0.dtd"
   xmlns:inkscape="http://www.inkscape.org/namespaces/inkscape"
   version="1.1"
   id="Layer_2"
   x="0px"
   y="0px"
   width="100px"
   height="100px"
   viewBox="5.0 -10.0 100.0 135.0"
   enable-background="new 0 0 100 100"
   xml:space="preserve"
   inkscape:version="0.48.5 r10040"
   sodipodi:docname="2012_icon.svg"><metadata
   id="metadata33"><rdf:RDF><cc:Work
       rdf:about=""><dc:format>image/svg+xml</dc:format><dc:type
         rdf:resource="http://purl.org/dc/dcmitype/StillImage" /><dc:title /></cc:Work></rdf:RDF></metadata><defs
   id="defs31" /><sodipodi:namedview
   pagecolor="#ffffff"
   bordercolor="#666666"
   borderopacity="1"
   objecttolerance="10"
   gridtolerance="10"
   guidetolerance="10"
   inkscape:pageopacity="0"
   inkscape:pageshadow="2"
   inkscape:window-width="1600"
   inkscape:window-height="838"
   id="namedview29"
   showgrid="false"
   inkscape:zoom="2.36"
   inkscape:cx="-8.9890142"
   inkscape:cy="50"
   inkscape:window-x="-8"
   inkscape:window-y="-8"
   inkscape:window-maximized="1"
   inkscape:current-layer="Layer_2" />
<g
   id="g3"
   style="fill:#4c4b4c;fill-opacity:1"
   transform="matrix(1.9318617,0,0,1.9234262,-40.586728,-56.835654)">
	<circle
   cx="63"
   cy="43"
   r="1.5"
   id="circle5"
   style="fill:#4c4b4c;fill-opacity:1"
   d="m 64.5,43 c 0,0.828427 -0.671573,1.5 -1.5,1.5 -0.828427,0 -1.5,-0.671573 -1.5,-1.5 0,-0.828427 0.671573,-1.5 1.5,-1.5 0.828427,0 1.5,0.671573 1.5,1.5 z"
   sodipodi:cx="63"
   sodipodi:cy="43"
   sodipodi:rx="1.5"
   sodipodi:ry="1.5" />
	<circle
   cx="37"
   cy="43"
   r="1.5"
   id="circle7"
   style="fill:#4c4b4c;fill-opacity:1"
   d="m 38.5,43 c 0,0.828427 -0.671573,1.5 -1.5,1.5 -0.828427,0 -1.5,-0.671573 -1.5,-1.5 0,-0.828427 0.671573,-1.5 1.5,-1.5 0.828427,0 1.5,0.671573 1.5,1.5 z"
   sodipodi:cx="37"
   sodipodi:cy="43"
   sodipodi:rx="1.5"
   sodipodi:ry="1.5" />
	<path
   d="m 66.521,39.453 0.015,-0.015 -1.573,-1.573 5.451,-5.451 c 0.78,-0.78 0.78,-2.048 0,-2.828 -0.78,-0.78 -2.049,-0.78 -2.829,0 l -5.451,5.452 -8.601,-8.601 -0.016,0.016 C 52.616,25.555 51.373,25 50,25 c -1.373,0 -2.616,0.555 -3.519,1.451 l -0.016,-0.016 -8.601,8.601 -5.451,-5.452 c -0.78,-0.78 -2.049,-0.78 -2.829,0 -0.78,0.78 -0.78,2.048 0,2.828 l 5.451,5.451 -1.573,1.573 0.016,0.016 c -0.004,0.004 -0.01,0.007 -0.014,0.012 -1.953,1.953 -1.953,5.119 0,7.07 C 34.44,47.512 35.72,48 37,48 v 5 h 26 v -5 c 2.761,0 5,-2.239 5,-5 0,-1.387 -0.566,-2.641 -1.479,-3.547 z M 37,46 c -1.654,0 -3,-1.346 -3,-3 0,-1.654 1.346,-3 3,-3 1.654,0 3,1.346 3,3 0,1.654 -1.346,3 -3,3 z M 50,33 c -1.654,0 -3,-1.346 -3,-3 0,-1.654 1.346,-3 3,-3 1.654,0 3,1.346 3,3 0,1.654 -1.346,3 -3,3 z m 13,13 c -1.654,0 -3,-1.346 -3,-3 0,-1.654 1.346,-3 3,-3 1.654,0 3,1.346 3,3 0,1.654 -1.346,3 -3,3 z"
   id="path9"
   style="fill:#4c4b4c;fill-opacity:1"
   inkscape:connector-curvature="0" />
	<circle
   cx="50"
   cy="30"
   r="1.5"
   id="circle11"
   style="fill:#4c4b4c;fill-opacity:1"
   d="m 51.5,30 c 0,0.828427 -0.671573,1.5 -1.5,1.5 -0.828427,0 -1.5,-0.671573 -1.5,-1.5 0,-0.828427 0.671573,-1.5 1.5,-1.5 0.828427,0 1.5,0.671573 1.5,1.5 z"
   sodipodi:cx="50"
   sodipodi:cy="30"
   sodipodi:rx="1.5"
   sodipodi:ry="1.5" />
	<path
   d="m 34,92 c 0,1.657 1.343,3 3,3 1.657,0 3,-1.343 3,-3 V 82 h -6 v 10 z"
   id="path13"
   style="fill:#4c4b4c;fill-opacity:1"
   inkscape:connector-curvature="0" />
	<path
   d="m 60,92 c 0,1.657 1.343,3 3,3 1.657,0 3,-1.343 3,-3 V 82 h -6 v 10 z"
   id="path15"
   style="fill:#4c4b4c;fill-opacity:1"
   inkscape:connector-curvature="0" />
	<path
   d="m 47,92 c 0,1.657 1.343,3 3,3 1.657,0 3,-1.343 3,-3 V 82 h -6 v 10 z"
   id="path17"
   style="fill:#4c4b4c;fill-opacity:1"
   inkscape:connector-curvature="0" />
	<path
   d="M 64,55 H 36 c -1.1,0 -2,0.9 -2,2 V 80 H 66 V 57 c 0,-1.1 -0.9,-2 -2,-2 z M 42,69 c -1.104,0 -2,-0.896 -2,-2 0,-1.104 0.896,-2 2,-2 1.104,0 2,0.896 2,2 0,1.104 -0.896,2 -2,2 z m 8,0 c -1.104,0 -2,-0.896 -2,-2 0,-1.104 0.896,-2 2,-2 1.104,0 2,0.896 2,2 0,1.104 -0.896,2 -2,2 z m 8,0 c -1.104,0 -2,-0.896 -2,-2 0,-1.104 0.896,-2 2,-2 1.104,0 2,0.896 2,2 0,1.104 -0.896,2 -2,2 z"
   id="path19"
   style="fill:#4c4b4c;fill-opacity:1"
   inkscape:connector-curvature="0" />
	<path
   d="m 25,57 v -7 l -3,3 -3,-3 v 7 c 0,7.183 5.817,13 13,13 v -6 c -3.866,0 -7,-3.134 -7,-7 z"
   id="path21"
   style="fill:#4c4b4c;fill-opacity:1"
   inkscape:connector-curvature="0" />
	<path
   d="m 78,53 -3,-3 v 7 c 0,3.866 -3.134,7 -7,7 v 6 c 7.183,0 13,-5.817 13,-13 v -7 l -3,3 z"
   id="path23"
   style="fill:#4c4b4c;fill-opacity:1"
   inkscape:connector-curvature="0" />
</g>
</svg>