<?xml version="1.0" encoding="UTF-8" standalone="no"?>
<svg
   xmlns:dc="http://purl.org/dc/elements/1.1/"
   xmlns:cc="http://creativecommons.org/ns#"
   xmlns:rdf="http://www.w3.org/1999/02/22-rdf-syntax-ns#"
   xmlns:svg="http://www.w3.org/2000/svg"
   xmlns="http://www.w3.org/2000/svg"
   xmlns:sodipodi="http://sodipodi.sourceforge.net/DTD/sodipodi-0.dtd"
   xmlns:inkscape="http://www.inkscape.org/namespaces/inkscape"
   version="1.1"
   id="Layer_2"
   x="0px"
   y="0px"
   width="100px"
   height="100px"
   viewBox="5.0 -10.0 100.0 135.0"
   enable-background="new 0 0 100 100"
   xml:space="preserve"
   inkscape:version="0.48.5 r10040"
   sodipodi:docname="2013_icon.svg"><metadata
   id="metadata31"><rdf:RDF><cc:Work
       rdf:about=""><dc:format>image/svg+xml</dc:format><dc:type
         rdf:resource="http://purl.org/dc/dcmitype/StillImage" /><dc:title /></cc:Work></rdf:RDF></metadata><defs
   id="defs29" /><sodipodi:namedview
   pagecolor="#ffffff"
   bordercolor="#666666"
   borderopacity="1"
   objecttolerance="10"
   gridtolerance="10"
   guidetolerance="10"
   inkscape:pageopacity="0"
   inkscape:pageshadow="2"
   inkscape:window-width="1600"
   inkscape:window-height="838"
   id="namedview27"
   showgrid="false"
   inkscape:zoom="2.36"
   inkscape:cx="50"
   inkscape:cy="50"
   inkscape:window-x="-8"
   inkscape:window-y="-8"
   inkscape:window-maximized="1"
   inkscape:current-layer="Layer_2" />
<g
   id="g3"
   style="fill:#4c4b4c;fill-opacity:1"
   transform="matrix(1.6600391,0,0,1.5021174,-28.425684,-18.527428)">
	<path
   d="m 59,92 c 0,1.657 1.343,3 3,3 1.657,0 3,-1.343 3,-3 V 77 h -6 v 15 z"
   id="path5"
   style="fill:#4c4b4c;fill-opacity:1"
   inkscape:connector-curvature="0" />
	<path
   d="m 35,92 c 0,1.657 1.343,3 3,3 1.657,0 3,-1.343 3,-3 V 77 h -6 v 15 z"
   id="path7"
   style="fill:#4c4b4c;fill-opacity:1"
   inkscape:connector-curvature="0" />
	<path
   d="M 63,44 H 37 c -1.1,0 -2,0.9 -2,2 V 75 H 65 V 46 c 0,-1.1 -0.9,-2 -2,-2 z m -9,22 h -8 c -1.104,0 -2,-0.896 -2,-2 0,-1.104 0.896,-2 2,-2 h 8 c 1.104,0 2,0.896 2,2 0,1.104 -0.896,2 -2,2 z m 0,-9 h -8 c -1.104,0 -2,-0.896 -2,-2 0,-1.104 0.896,-2 2,-2 h 8 c 1.104,0 2,0.896 2,2 0,1.104 -0.896,2 -2,2 z"
   id="path9"
   style="fill:#4c4b4c;fill-opacity:1"
   inkscape:connector-curvature="0" />
	<path
   d="m 24,58 v 14 l 3,-3 3,3 V 58 c 0,-1.657 1.343,-3 3,-3 v -6 c -4.97,0 -9,4.03 -9,9 z"
   id="path11"
   style="fill:#4c4b4c;fill-opacity:1"
   inkscape:connector-curvature="0" />
	<path
   d="M 60,18 H 59.784 L 61.959,7.403 C 62.182,6.321 61.484,5.263 60.402,5.041 59.32,4.819 58.263,5.516 58.041,6.598 L 55.72,18 H 44.28 L 41.96,6.598 C 41.738,5.516 40.681,4.819 39.599,5.041 38.517,5.263 37.82,6.321 38.042,7.403 L 40.216,18 H 40 c -2.761,0 -5,2.239 -5,5 0,2.738 2.204,4.957 4.934,4.993 L 39,42 H 61 L 60.065,27.977 C 62.726,27.854 65,25.683 65,23 65,20.239 62.761,18 60,18 z m -20,8 c -1.654,0 -3,-1.346 -3,-3 0,-1.654 1.346,-3 3,-3 1.654,0 3,1.346 3,3 0,1.654 -1.346,3 -3,3 z m 13,12 h -6 c -1.657,0 -3,-1.343 -3,-3 0,-1.657 1.343,-3 3,-3 h 6 c 1.657,0 3,1.343 3,3 0,1.657 -1.343,3 -3,3 z m 7,-12 c -1.654,0 -3,-1.346 -3,-3 0,-1.654 1.346,-3 3,-3 1.654,0 3,1.346 3,3 0,1.654 -1.346,3 -3,3 z"
   id="path13"
   style="fill:#4c4b4c;fill-opacity:1"
   inkscape:connector-curvature="0" />
	<path
   d="m 67,49 v 6 c 1.657,0 3,1.343 3,3 v 14 l 3,-3 3,3 V 58 c 0,-4.97 -4.03,-9 -9,-9 z"
   id="path15"
   style="fill:#4c4b4c;fill-opacity:1"
   inkscape:connector-curvature="0" />
	<circle
   cx="40"
   cy="23"
   r="1.5"
   id="circle17"
   style="fill:#4c4b4c;fill-opacity:1"
   d="m 41.5,23 c 0,0.828427 -0.671573,1.5 -1.5,1.5 -0.828427,0 -1.5,-0.671573 -1.5,-1.5 0,-0.828427 0.671573,-1.5 1.5,-1.5 0.828427,0 1.5,0.671573 1.5,1.5 z"
   sodipodi:cx="40"
   sodipodi:cy="23"
   sodipodi:rx="1.5"
   sodipodi:ry="1.5" />
	<circle
   cx="60"
   cy="23"
   r="1.5"
   id="circle19"
   style="fill:#4c4b4c;fill-opacity:1"
   d="m 61.5,23 c 0,0.828427 -0.671573,1.5 -1.5,1.5 -0.828427,0 -1.5,-0.671573 -1.5,-1.5 0,-0.828427 0.671573,-1.5 1.5,-1.5 0.828427,0 1.5,0.671573 1.5,1.5 z"
   sodipodi:cx="60"
   sodipodi:cy="23"
   sodipodi:rx="1.5"
   sodipodi:ry="1.5" />
	<path
   d="m 53,33.5 h -6 c -0.827,0 -1.5,0.673 -1.5,1.5 0,0.827 0.673,1.5 1.5,1.5 h 6 c 0.827,0 1.5,-0.673 1.5,-1.5 0,-0.827 -0.673,-1.5 -1.5,-1.5 z"
   id="path21"
   style="fill:#4c4b4c;fill-opacity:1"
   inkscape:connector-curvature="0" />
</g>
</svg>