<?xml version="1.0" encoding="UTF-8" standalone="no"?>
<svg
   xmlns:dc="http://purl.org/dc/elements/1.1/"
   xmlns:cc="http://creativecommons.org/ns#"
   xmlns:rdf="http://www.w3.org/1999/02/22-rdf-syntax-ns#"
   xmlns:svg="http://www.w3.org/2000/svg"
   xmlns="http://www.w3.org/2000/svg"
   xmlns:sodipodi="http://sodipodi.sourceforge.net/DTD/sodipodi-0.dtd"
   xmlns:inkscape="http://www.inkscape.org/namespaces/inkscape"
   version="1.1"
   id="Layer_2"
   x="0px"
   y="0px"
   width="100px"
   height="100px"
   viewBox="5.0 -10.0 100.0 135.0"
   enable-background="new 0 0 100 100"
   xml:space="preserve"
   inkscape:version="0.48.5 r10040"
   sodipodi:docname="2014_icon.svg"><metadata
   id="metadata27"><rdf:RDF><cc:Work
       rdf:about=""><dc:format>image/svg+xml</dc:format><dc:type
         rdf:resource="http://purl.org/dc/dcmitype/StillImage" /><dc:title /></cc:Work></rdf:RDF></metadata><defs
   id="defs25" /><sodipodi:namedview
   pagecolor="#ffffff"
   bordercolor="#666666"
   borderopacity="1"
   objecttolerance="10"
   gridtolerance="10"
   guidetolerance="10"
   inkscape:pageopacity="0"
   inkscape:pageshadow="2"
   inkscape:window-width="1600"
   inkscape:window-height="838"
   id="namedview23"
   showgrid="false"
   inkscape:zoom="2.36"
   inkscape:cx="50"
   inkscape:cy="50"
   inkscape:window-x="-8"
   inkscape:window-y="-8"
   inkscape:window-maximized="1"
   inkscape:current-layer="Layer_2" />
<g
   id="g3"
   style="fill:#4c4b4c;fill-opacity:1"
   transform="matrix(1.7855553,0,0,1.6506842,-35.559546,-33.785686)">
	<circle
   cx="38"
   cy="20"
   r="1.5"
   id="circle5"
   style="fill:#4c4b4c;fill-opacity:1"
   d="m 39.5,20 c 0,0.828427 -0.671573,1.5 -1.5,1.5 -0.828427,0 -1.5,-0.671573 -1.5,-1.5 0,-0.828427 0.671573,-1.5 1.5,-1.5 0.828427,0 1.5,0.671573 1.5,1.5 z"
   sodipodi:cx="38"
   sodipodi:cy="20"
   sodipodi:rx="1.5"
   sodipodi:ry="1.5" />
	<circle
   cx="62"
   cy="20"
   r="1.5"
   id="circle7"
   style="fill:#4c4b4c;fill-opacity:1"
   d="m 63.5,20 c 0,0.828427 -0.671573,1.5 -1.5,1.5 -0.828427,0 -1.5,-0.671573 -1.5,-1.5 0,-0.828427 0.671573,-1.5 1.5,-1.5 0.828427,0 1.5,0.671573 1.5,1.5 z"
   sodipodi:cx="62"
   sodipodi:cy="20"
   sodipodi:rx="1.5"
   sodipodi:ry="1.5" />
	<path
   d="M 34.185,23.231 39.069,29 H 61 v -0.082 l 4.815,-5.687 -0.017,-0.014 C 66.537,22.345 67,21.232 67,20 c 0,-2.761 -2.239,-5 -5,-5 -1.529,0 -2.882,0.702 -3.799,1.784 L 58.183,16.769 56.295,19 h -12.59 l -1.889,-2.231 -0.018,0.015 C 40.882,15.702 39.529,15 38,15 c -2.761,0 -5,2.239 -5,5 0,1.232 0.463,2.345 1.202,3.217 l -0.017,0.014 z M 62,17 c 1.654,0 3,1.346 3,3 0,1.654 -1.346,3 -3,3 -1.654,0 -3,-1.346 -3,-3 0,-1.654 1.346,-3 3,-3 z m -24,0 c 1.654,0 3,1.346 3,3 0,1.654 -1.346,3 -3,3 -1.654,0 -3,-1.346 -3,-3 0,-1.654 1.346,-3 3,-3 z"
   id="path9"
   style="fill:#4c4b4c;fill-opacity:1"
   inkscape:connector-curvature="0" />
	<path
   d="m 66.875,78 h -33.75 l -0.129,1.031 c -0.257,2.057 1.135,3.741 3.136,3.932 l -1.107,8.657 c -0.211,1.643 0.951,3.146 2.595,3.356 1.644,0.21 3.146,-0.951 3.355,-2.594 L 42.176,83 h 15.648 l 1.201,9.381 c 0.209,1.644 1.712,2.804 3.355,2.594 1.643,-0.21 2.806,-1.713 2.595,-3.356 l -1.107,-8.657 c 2,-0.191 3.393,-1.875 3.136,-3.932 L 66.875,78 z"
   id="path11"
   style="fill:#4c4b4c;fill-opacity:1"
   inkscape:connector-curvature="0" />
	<polygon
   points="72.193,40.054 64.255,41.046 65,47 72.938,46.007 69.589,43.403 "
   id="polygon13"
   style="fill:#4c4b4c;fill-opacity:1" />
	<polygon
   points="27.062,46.007 35,47 35.745,41.046 27.807,40.054 30.411,43.403 "
   id="polygon15"
   style="fill:#4c4b4c;fill-opacity:1" />
	<path
   d="m 39,31 -5.625,45 h 33.25 L 61,31 H 39 z m 7,37.5 C 46,69.328 45.328,70 44.5,70 43.672,70 43,69.328 43,68.5 v -7 c 0,-0.828 0.672,-1.5 1.5,-1.5 0.828,0 1.5,0.672 1.5,1.5 v 7 z m 5.5,0 c 0,0.828 -0.672,1.5 -1.5,1.5 -0.828,0 -1.5,-0.672 -1.5,-1.5 v -7 c 0,-0.828 0.672,-1.5 1.5,-1.5 0.828,0 1.5,0.672 1.5,1.5 v 7 z m 5.5,0 C 57,69.328 56.328,70 55.5,70 54.672,70 54,69.328 54,68.5 v -7 c 0,-0.828 0.672,-1.5 1.5,-1.5 0.828,0 1.5,0.672 1.5,1.5 v 7 z"
   id="path17"
   style="fill:#4c4b4c;fill-opacity:1"
   inkscape:connector-curvature="0" />
</g>
</svg>