<?xml version="1.0" encoding="UTF-8" standalone="no"?>
<svg
   xmlns:dc="http://purl.org/dc/elements/1.1/"
   xmlns:cc="http://creativecommons.org/ns#"
   xmlns:rdf="http://www.w3.org/1999/02/22-rdf-syntax-ns#"
   xmlns:svg="http://www.w3.org/2000/svg"
   xmlns="http://www.w3.org/2000/svg"
   xmlns:sodipodi="http://sodipodi.sourceforge.net/DTD/sodipodi-0.dtd"
   xmlns:inkscape="http://www.inkscape.org/namespaces/inkscape"
   version="1.1"
   id="Layer_1"
   x="0px"
   y="0px"
   width="100px"
   height="100px"
   viewBox="5.0 -10.0 100.0 135.0"
   enable-background="new 0 0 100 100"
   xml:space="preserve"
   inkscape:version="0.48.5 r10040"
   sodipodi:docname="mission_ship.svg"><metadata
   id="metadata13"><rdf:RDF><cc:Work
       rdf:about=""><dc:format>image/svg+xml</dc:format><dc:type
         rdf:resource="http://purl.org/dc/dcmitype/StillImage" /><dc:title></dc:title></cc:Work></rdf:RDF></metadata><defs
   id="defs11" /><sodipodi:namedview
   pagecolor="#ffffff"
   bordercolor="#666666"
   borderopacity="1"
   objecttolerance="10"
   gridtolerance="10"
   guidetolerance="10"
   inkscape:pageopacity="0"
   inkscape:pageshadow="2"
   inkscape:window-width="1600"
   inkscape:window-height="838"
   id="namedview9"
   showgrid="false"
   inkscape:zoom="2.36"
   inkscape:cx="-16.101695"
   inkscape:cy="50"
   inkscape:window-x="-8"
   inkscape:window-y="-8"
   inkscape:window-maximized="1"
   inkscape:current-layer="Layer_1" />
<path
   d="m 66.370203,64.023305 c 1.965,-1.619 3.919,-3.386 5.829,-5.296 13.763,-13.763 20.281,-29.731 15.089,-36.443 7.789,-7.899 13.485997,-14.1259999 13.164997,-14.4459999 -0.319,-0.32 -6.545997,5.3759999 -14.445997,13.1649999 -6.71,-5.198 -22.682,1.321 -36.446,15.086 -1.911,1.911 -3.678,3.865 -5.298,5.83 -6.008,-3.644 -17.688,0.569 -27.321,10.204 -10.4499996,10.451 -14.5309996,23.313 -9.1149996,28.729 16.1449996,-16.146 18.5199996,-18.509 24.9599996,-12.762 0.03,0.257 0.065,0.512 0.111,0.759 -1.333,-1.23 -2.487,-2.14 -3.605,-2.679 l -5.523,1.98 2.442,2.441 -3.929,1.409 2.397,2.396 -3.679,1.318 11.566,11.567 1.32,-3.679 2.396,2.395 1.409,-3.922 2.442,2.441 1.981,-5.522 c -0.541,-1.118 -1.451,-2.272 -2.681,-3.607 0.25,0.046 0.506,0.082 0.766,0.112 5.747,6.442 3.385,8.817 -12.761,24.962005 5.417,5.416 18.279,1.335 28.729,-9.114005 9.633,-9.633 13.848,-21.314 10.202,-27.324 z m 8.526,-29.941 c 2.213,2.212 2.213,5.801 0,8.013 -2.213,2.213 -5.802,2.213 -8.014,10e-4 -2.213,-2.213 -2.213,-5.801 0,-8.015 2.213,-2.212 5.801,-2.212 8.014,10e-4 z m -28.756,28.756 c -2.213,-2.213 -2.213,-5.802 0,-8.015 2.212,-2.213 5.801,-2.213 8.014,0 2.213,2.213 2.213,5.802 0,8.014 -2.212,2.214 -5.801,2.214 -8.014,10e-4 z m 10.371,-10.371 c -0.691,-0.691 -1.167,-1.518 -1.427,-2.394 -0.57,-1.928 -0.095,-4.099 1.427,-5.621 l 0,0 0,0 c 1.521,-1.521 3.692,-1.997 5.62,-1.426 0.877,0.259 1.702,0.735 2.394,1.426 2.214,2.213 2.214,5.801 10e-4,8.014 -2.213,2.214 -5.802,2.214 -8.015,0.001 z"
   id="path3"
   inkscape:connector-curvature="0"
   style="fill:#4c4b4c;fill-opacity:1" />
</svg>